<svg width="301" height="115" viewBox="0 0 301 115" fill="none" xmlns="http://www.w3.org/2000/svg">
<path d="M193.014 0.128174C193.014 0.128174 223.16 25.7375 250.818 48.4932C278.476 71.2489 300.427 73.1513 300.5 78.639C300.5 84.0536 293.11 86.6877 265.598 88.2974C238.013 89.834 200.77 112.956 173.844 108.2C173.844 108.2 154.454 80.4683 150.356 61.9564C146.186 43.3713 193.014 0.128174 193.014 0.128174Z" fill="#EAB363"/>
<path d="M173.844 108.2C173.844 108.2 154.454 80.4683 150.356 61.9564C146.186 43.3713 193.014 0.128174 193.014 0.128174C193.014 0.128174 194.477 1.37205 197.038 3.49397C194.185 21.8595 184.892 81.3463 177.575 108.712C176.307 108.565 175.063 108.395 173.844 108.2Z" fill="#FFD399"/>
<path d="M170.331 91.7363C170.331 91.7363 157.527 63.2002 159.502 55.1516C161.405 47.0298 189.282 12.8596 189.282 12.8596C189.721 21.5668 170.331 91.7363 170.331 91.7363Z" fill="#8C5E28"/>
<path d="M133.6 58.3711C133.6 58.3711 144.21 65.6149 143.405 68.7612C142.6 71.9806 136.015 73.8099 136.015 73.8099C136.015 73.8099 129.43 78.4927 127.235 78.4927C125.04 78.4927 122.698 73.0782 122.698 73.0782L119.918 58.3711H133.6Z" fill="#FFD399"/>
<path d="M122.698 89.2486C122.698 89.2486 122.552 95.6143 104.552 99.4191C86.5524 103.151 38.4801 109.004 16.3097 113.98C-5.86065 118.955 -0.226596 95.1753 6.43183 88.4437C13.0903 81.7121 37.0167 30.4935 44.0409 18.7863C51.0652 7.1524 62.4065 1.73785 62.4065 1.73785C87.3573 9.12797 122.698 89.2486 122.698 89.2486Z" fill="#EAB363"/>
<path d="M122.698 89.2486C122.698 89.2486 122.698 90.2729 121.454 91.8095C104.698 81.7121 66.9428 17.9083 61.382 10.5182C59.4064 7.81092 59.26 5.32316 59.9917 3.12808C61.5283 2.17687 62.4063 1.73785 62.4063 1.73785C87.3571 9.12797 122.698 89.2486 122.698 89.2486Z" fill="#FFD399"/>
<path d="M127.893 78.4195C127.649 78.4683 127.43 78.4927 127.235 78.4927C125.04 78.4927 122.698 73.0782 122.698 73.0782L119.918 58.3711H133.6C133.6 58.3711 140.259 62.9076 142.6 66.3466L126.064 68.6148L127.893 78.4195Z" fill="#EAB363"/>
<path d="M153.21 93.712C153.21 93.712 147.868 103.956 142.015 103.004C136.161 102.053 133.6 89.834 133.6 89.834C145.673 87.8584 153.21 93.712 153.21 93.712Z" fill="#EAB363"/>
<path d="M137.332 99.346C134.771 95.3949 133.6 89.834 133.6 89.834C139.966 88.8096 145.088 89.9803 148.527 91.2974C145.82 94.0778 140.844 97.2973 137.332 99.346Z" fill="#FFD399"/>
<path d="M64.4553 28.2984C65.9187 33.0544 60.0651 34.2251 50.2604 35.469C40.5289 36.6397 35.6265 44.4689 40.0167 35.469C44.4068 26.396 54.2116 14.5425 54.2116 14.5425C54.2116 14.5425 62.9919 23.4692 64.4553 28.2984Z" fill="#F4CD9A"/>
<path d="M202.453 14.5425C202.453 14.5425 226.891 38.3958 231.282 39.7128C235.672 41.0299 226.891 51.3468 219.575 47.6883C212.258 43.9567 197.038 44.4689 197.038 44.4689L202.453 14.5425Z" fill="#F4CD9A"/>
</svg>
